<?xml version="1.0" standalone="no"?><!DOCTYPE svg PUBLIC "-//W3C//DTD SVG 1.1//EN" "http://www.w3.org/Graphics/SVG/1.1/DTD/svg11.dtd"><svg t="1513228907748" class="icon" style="" viewBox="0 0 1024 1024" version="1.1" xmlns="http://www.w3.org/2000/svg" p-id="3328" xmlns:xlink="http://www.w3.org/1999/xlink" width="200" height="200"><defs><style type="text/css"></style></defs><path d="M880 248c23.4 0 45.4 9.2 62.2 25.8 16.8 16.8 25.8 38.8 25.8 62.2v352c0 23.4-9.2 45.4-25.8 62.2-16.8 16.8-38.8 25.8-62.2 25.8H144c-23.4 0-45.4-9.2-62.2-25.8C65.2 733.4 56 711.4 56 688V336c0-23.4 9.2-45.4 25.8-62.2C98.6 257.2 120.6 248 144 248h736m0-56H144c-79.2 0-144 64.8-144 144v352c0 79.2 64.8 144 144 144h736c79.2 0 144-64.8 144-144V336c0-79.2-64.8-144-144-144z" fill="#ffffff" p-id="3329"></path><path d="M408 624h208v56H408z" fill="#ffffff" p-id="3330"></path><path d="M664 624h208v56H664zM152 624h208v56H152z" fill="#ffffff" p-id="3331"></path></svg>